<svg xmlns="http://www.w3.org/2000/svg" xmlns:xlink="http://www.w3.org/1999/xlink" version="1.1" viewBox="13.94 45.37 808.31 500.15">
<defs>
<clipPath id="clip_1">
<path transform="matrix(1,0,0,-1,0,595.276)" d="M0 595.276H841.89V0H0Z"/>
</clipPath>
<clipPath id="clip_2">
<path transform="matrix(1,0,0,-1,0,595.276)" d="M0 595.276H841.89V0H0Z"/>
</clipPath>
</defs>
<g>
</g>
<g>
<g clip-path="url(#clip_1)">
<path transform="matrix(1,0,0,-1,477.2441,360.49653)" d="M0 0C-8.093 13.948-12.555 21.894-13.622 24.253-24.995 50.78-31.883 79.404-34.096 109.327-36.514 142.039-36.714 209.59-34.689 310.104L-38.536 310.74C-61.667 237.825-78.881 182.798-91.16 142.524-108.048 87.926-119.349 54.058-124.726 41.907-127.693 35.669-129.407 35.02-129.72 34.953-129.798 34.938-129.923 34.911-130.142 35.096-135.085 39.797-143.812 62.548-157.315 144.24-168.86 214.439-177.476 267.899-182.923 303.134L-183.649 307.834-186.459 303.998C-189.656 299.63-194.034 293.246-199.487 284.993-205.226 275.986-210.064 268.54-213.995 262.657L-186.964 274.699-180.981 221.411C-171.995 169.985-165.162 128.21-160.615 96.854-145.808 7.781-135.932-6.908-129.763-10.225-128.121-11.072-126.303-11.096-124.507-10.291-118.212-7.468-107.209 6.562-84.435 95.463-66.712 169.597-52.937 228.442-43.394 270.776-42.922 235.865-42.774 194.021-42.959 146.079-43.114 97.311-43.108 72.495-42.939 70.209-42.658 66.425-38.87 44.451-31.36 3.044-22.514-47.242-16.308-83.147-12.387-106.723L-8.479-106.547C-4.85-58.261-1.912-22.812 .255-1.186L.319-.552Z" fill="currentColor"/>
<path transform="matrix(1,0,0,-1,243.0225,310.561)" d="M0 0C-7.523 53.806-3.77 119.722 30.527 188.618 33.69 80.354 50.85 8.933 69.089-37.142 45.362-15.774 21.875-4.651 0 0M39.988 206.331 25.724 200.269C-12.741 133.131-20.364 60.529-17.658 2.465-22.539 2.789-27.302 2.801-31.948 2.583-32.456 13.038-32.714 23.778-32.714 34.803-32.714 66.81-30.477 92.241-26.061 110.417-20.76 133.545-9.553 159.538 7.25 187.672L10.004 192.285 4.921 190.545C-11.979 184.764-15.911 181.259-17.42 179.093-20.924 173.851-27.765 165.075-37.75 153.014-46.678 142.295-53.185 133.205-57.063 126.042-68.084 106.899-82.394 77.173-99.611 37.66-101.183 39.274-101.43 39.966-101.467 40.117L-101.55 40.451-101.74 40.736C-102.78 42.297-103.902 43.346-105.091 43.873-107.658 74.686-108.959 110.951-108.959 151.688V156.113L-112.247 153.152C-125.985 140.782-126.319 139.777-126.589 138.97L-126.63 138.825C-139.31 88.121-149.9 52.159-158.113 31.92-171.822-2.768-191.152-34.861-215.572-63.48-218.423-63.994-222.293-64.39-227.089-64.655L-229.085-64.767-228.945-66.759C-226.008-108.631-223.765-137.967-222.277-153.951L-218.351-153.899C-217.465-140.561-216.579-127.375-215.686-114.399-213.957-97.635-210.78-85.827-206.252-79.314-188.453-54.103-171.93-23.762-157.139 10.87-138.167 55.564-125.501 84.824-119.373 98.12-114.779 71.141-110.658 40.221-107.111 6.095L-103.279 5.686C-83.089 67.371-57.649 112.868-27.607 141.045-31.195 120.333-35.047 93.676-39.079 61.671-42.977 29.567-44.871 11.597-44.871 6.734-44.871 4.979-44.846 3.178-44.8 1.34-87.05-4.837-116.038-29.585-116.038-29.585L-101.246-87.109-94.672-88.753-97.81-39.301C-80.458-22.003-62.292-13.469-44.184-11.068-42.432-35.724-37.29-66.407-28.81-102.641-17.034-154.184-10.166-190.599-8.396-210.875L-4.496-211.055C-3.315-204.534-1.544-194.895 .828-182.176 6.442-153.271 7.092-147.812 7.092-146.22 7.092-144.483 6.186-141.216-.914-131.235-8.864-120.81-11.21-116.386-11.798-114.45-21.933-84.455-28.401-49.564-31.164-10.365-26.34-10.472-21.536-10.964-16.768-11.809-12.295-69.596 1.515-109.803 1.515-109.803L19.078-136.146 5.585-212.021 13.803-213.664 45.031-129.842C45.031-129.842 15.829-85.118 2.847-17.187 38.25-30.208 70.212-59.25 91.314-82.044 105.91-105.393 117.348-113.406 117.348-113.406L133.784-106.832C49.962-64.1 39.988 206.331 39.988 206.331" fill="currentColor"/>
<path transform="matrix(1,0,0,-1,593.4736,204.5444)" d="M0 0-.365-.177-.763-31.655 2.963-27.196C6.883-21.96 11.77-18.119 17.499-15.768L20.074-103.756C13.397-123.321 4.27-138.04-7.059-147.507L-7.488-147.866-7.203-148.346C6.313-171.119 14.483-195.806 17.246-221.967 1.992-217.963-10.685-199.137-20.445-165.992-28.471-132.092-33.563-107.238-35.597-92.033-43.601-47.536-45.33-38.551-45.906-36.451L-45.876-36.445C-50.368-16.14-56.814 3.131-65.045 20.865-58.884 24.897-52.293 30.542-45.433 37.669-40.333 42.959-36.08 46.939-32.757 49.547L-27.139 52.875C-26.301 53.383-25.48 53.882-24.674 54.375-8.313 62.851 4.468 69.324 14.377 74.155 15.245 74.646 16.08 75.131 16.905 75.616 17.229 69.158 20.25 63.324 25.944 58.297L27.887 56.308 43.298 101.656 41.862 100.929C41.5 100.746 41.165 100.565 40.812 100.382L40.949 101.209 8.812 108.481 8.557 108.472C-52.504 106.325-102.306 101.623-139.467 94.495L-140.878 94.224-141.052 92.798C-141.284 90.891-141.509 89.017-141.729 87.164L-140.13 32.799C-132.009 61.451-119.196 80.565-101.931 89.698-91.732 95.137-73.533 98.841-47.805 100.708-28.191 102.454-14.622 102.898-7.479 102.028L-3.139 101.502C15.111 98.859 14.077 90.338 13.735 87.54 13.532 85.874 9.135 79.662-26.627 57.799-28.068 57.052-29.535 56.29-31.033 55.512-32.205 54.836-33.509 53.943-34.956 52.823L-60.559 37.658C-68.807 32.667-75.341 28.685-78.961 26.447L-80.595 25.437-79.626 23.778C-66.441 1.202-55.414-29.956-46.861-68.777-40.792-100.475-34.392-133.362-27.826-166.598-24.454-180.841-19.994-193.146-14.571-203.169L-14.412-203.417C-13.92-204.087-4.436-218.082 3.783-230.214 11.659-241.604 16.079-251.021 16.92-258.207 17.143-265.882 17.276-272.844 17.318-279.068 16.2-286.129 14.668-293.705 12.501-301.821L11.916-304.012 20.649-305.072 20.78-302.988C21.166-296.832 21.329-289.014 21.265-279.346 22.687-270.283 23.437-262.08 23.978-254.675 24.942-251.044 25.814-247.261 26.591-243.323L29.237-226.345C30.098-219.088 30.694-211.427 31.019-203.369 31.033-202.812 31.048-202.223 31.062-201.62 31.174-200.035 31.233-199.157 31.237-199.098L31.121-199.09C31.438-184.652 31.735-159.687 32.003-124.726 31.75-68.225 31.847-21.675 32.292 13.631L32.305 14.652 31.371 14.24C16.821 7.832 6.561 3.174 0 0" fill="currentColor"/>
<path transform="matrix(1,0,0,-1,511.8574,120.23871)" d="M0 0C-3.781-11.541-7.226-29.938-10.238-54.682-13.125-78.402-15.28-96.378-16.643-108.109-17.333-114.057-17.835-118.521-18.147-121.501-18.367-123.59-18.515-125-18.507-125.965-19.788-131.224-23.179-138.624-28.586-147.971-37.259-162.956-37.43-164.368-37.521-165.125-37.86-167.902-37.051-171.147-35.051-175.048-33.374-178.317-32.324-180.678-31.924-182.07-30.592-197.646-30.046-211.446-30.301-223.09L-26.412-223.581C-21.807-203.848-20.519-198.872-20.249-198.172L-19.961-197.419-20.195-196.88C-20.216-196.34-20.108-194.239-18.736-186.23L-14.493-151.358-14.49-151.333C-9.903-108.789-3.74-58.167 3.825-.871Z" fill="currentColor"/>
<path transform="matrix(1,0,0,-1,776.4482,416.6596)" d="M0 0C-1.957 .986-14.815 3.254-39.31 6.933-63.016 10.482-80.848 19.914-92.321 34.967-86.762 43.806-78.533 51.086-67.861 56.61-57.952 61.59-47.596 64.114-37.082 64.114-25.181 64.114-16.354 57.869-10.845 45.551L-10.08 43.841-9.61 45.655C-4.321 66.062-.045 82.185 3.1 93.578L3.598 95.382 2.081 94.285C-3.505 90.24-12.093 86.686-23.444 83.717-35.965 80.444-47.32 77.423-58.171 74.48-72.346 70.371-83.229 65.227-90.539 59.174-99.774 50.872-104.458 40.024-104.458 26.932-104.458 24.038-104.297 20.987-103.979 17.863L-103.95 17.568-103.709 17.396C-92.662 9.479-79.701 4.18-65.11 1.636-53.106 .973-41.115 .175-29.469-.738-17.551-1.673-9.027-4.633-4.138-9.537 2.269-15.967 5.228-27.807 4.659-44.729-11.161-55.227-27.355-60.548-43.478-60.548-52.233-60.548-63.014-58.96-75.519-55.83-90.193-52.099-102.068-47.035-110.814-40.781L-111.853-40.038V-133.06L-110.569-133.253C-107.604-123.616-105.795-117.555-104.889-114.219-100.224-100.729-95.172-91.031-89.854-85.368-83.087-77.311-73.381-73.226-61.005-73.226-56.361-73.226-51.313-73.694-45.996-74.622-42.496-75.578-38.78-76.063-34.951-76.063-21.575-76.063-8.678-70.104 3.392-58.344 14.037-47.698 19.211-39.34 19.211-32.788 19.211-16.165 12.731-5.125 0 0" fill="currentColor"/>
<path transform="matrix(1,0,0,-1,806.9316,342.352)" d="M0 0C0 13.695-2.17 27.594-6.497 41.681-7.685 45.975-8.263 49.098-8.263 51.065-8.263 58.108-.408 65.745 15.318 73.96 14.538 70.821 9.431 46.162 0 0" fill="currentColor"/>
<path transform="matrix(1,0,0,-1,361.7705,333.0541)" d="M0 0C1.907 0 2.202 2.972 .281 2.972-1.625 2.972-1.92 0 0 0" fill="currentColor"/>
</g>
</g>
<g>
<g clip-path="url(#clip_2)">
<path transform="matrix(1,0,0,-1,761.124,181.62439)" d="M0 0V30.101C0 30.101 4.014 55.519 16.054 80.938 16.054 80.938-28.764 53.512-82.944 28.763-82.944 28.763-113.366 16.057-113.715-27.425-114.049-69.232-74.583-57.192-74.583-57.192-74.583-57.192-23.139-43.915-18.135-74.249-12.784-106.691-23.486-120.403-40.209-129.769-56.932-139.133-83.316-157.862-123.451-129.769V-246.158H-117.394C-117.394-246.158-120.738-159.869-67.895-150.839-21.983-142.993-5.76-129.1 .26-95.988 6.28-62.877-12.784-40.804-35.192-40.804-51.611-40.804-80.938-41.807-80.938-41.807-80.938-41.807-100.336-41.473-95.319-7.693-90.303 26.087-39.466 38.462-17.058 44.816-17.058 44.816-8.696 46.489-8.696 32.107V-.334Z" fill="currentColor"/>
</g>
</g>
</svg>
